 <svg version="1.0" xmlns="http://www.w3.org/2000/svg" width="700.000000pt" height="700.000000pt" viewBox="0 0 700.000000 700.000000" preserveAspectRatio="xMidYMid meet">
<metadata>
Created by potrace 1.12, written by Peter Selinger 2001-2015
</metadata>
<g transform="translate(0.000000,700.000000) scale(0.100000,-0.100000)" fill="#000000" stroke="none">
<path d="M1395 6550 c-68 -20 -153 -53 -194 -78 -56 -34 -193 -163 -212 -200
-7 -15 -22 -38 -31 -52 -10 -14 -32 -65 -49 -115 -30 -87 -31 -95 -26 -220 4
-137 10 -161 75 -294 48 -97 190 -227 317 -291 l30 -15 0 -1785 0 -1785 -30
-15 c-127 -64 -269 -194 -317 -291 -65 -133 -71 -157 -75 -294 -5 -125 -4
-134 26 -218 41 -120 86 -189 174 -272 93 -88 139 -116 257 -155 90 -30 102
-32 215 -28 98 3 129 8 167 26 26 12 53 22 61 22 8 0 29 10 48 23 19 12 46 28
61 36 38 19 166 149 185 186 9 17 22 37 29 46 16 18 49 108 71 194 23 92 13
219 -26 323 -43 117 -74 166 -155 250 -67 70 -93 89 -188 138 -22 11 -44 27
-49 35 -10 16 -13 2127 -3 2153 7 17 44 22 44 6 0 -19 194 -220 295 -306 85
-72 268 -198 340 -234 22 -11 54 -29 70 -40 17 -11 37 -20 46 -20 9 0 33 -11
53 -25 20 -14 45 -25 54 -25 9 0 41 -12 71 -25 30 -14 75 -30 100 -36 25 -5
61 -17 79 -25 18 -8 84 -24 146 -34 63 -11 133 -25 157 -31 30 -8 223 -13 622
-16 l578 -5 22 -46 c13 -26 35 -65 49 -88 31 -49 157 -173 196 -193 15 -7 34
-19 42 -26 8 -7 55 -27 105 -44 81 -28 100 -31 210 -31 83 1 132 6 160 16 22
9 58 21 81 29 140 45 311 219 365 371 60 169 63 299 9 444 -42 113 -74 164
-155 246 -90 91 -139 122 -255 164 -88 33 -103 35 -210 34 -100 0 -126 -4
-195 -29 -44 -15 -103 -41 -132 -57 -98 -55 -243 -217 -274 -307 -7 -19 -20
-33 -33 -37 -13 -3 -277 -4 -587 -2 -496 3 -569 6 -609 20 -25 9 -76 22 -115
29 -38 6 -96 22 -127 35 -32 13 -63 24 -70 24 -14 0 -86 33 -203 93 -119 61
-176 99 -303 203 -126 102 -132 108 -327 350 -14 18 -25 35 -25 39 0 3 -12 25
-27 48 -16 23 -43 74 -62 112 -19 39 -44 91 -57 116 -13 26 -24 55 -24 64 0
10 -11 43 -24 74 -14 31 -30 88 -36 126 -6 39 -18 92 -27 119 -11 35 -16 91
-17 190 l-1 140 30 15 c126 65 256 180 308 273 83 146 116 326 84 453 -21 82
-56 177 -72 195 -7 8 -20 29 -28 46 -42 82 -208 216 -309 249 -24 7 -61 20
-83 29 -44 17 -237 20 -290 6z m252 -460 c23 -17 55 -52 72 -77 26 -39 31 -56
31 -108 0 -52 -5 -69 -31 -108 -16 -25 -51 -60 -76 -76 -40 -27 -55 -31 -112
-31 -56 0 -72 5 -109 30 -24 16 -58 48 -75 72 -29 39 -32 49 -31 113 1 63 5
76 33 115 17 24 51 57 74 72 36 24 52 28 113 28 62 0 75 -3 111 -30z m3494
-2623 c42 -33 43 -34 75 -75 21 -27 28 -46 31 -100 3 -44 0 -74 -9 -87 -7 -12
-21 -34 -32 -50 -10 -17 -39 -43 -65 -60 -39 -26 -56 -30 -113 -30 -58 0 -71
4 -109 31 -23 17 -56 50 -73 73 -27 37 -30 49 -30 111 1 59 5 76 29 110 29 42
86 90 120 102 11 4 47 6 81 5 49 -2 68 -8 95 -30z m-3499 -2187 c25 -17 58
-49 74 -73 26 -37 29 -51 29 -117 0 -70 -2 -78 -34 -117 -58 -73 -97 -93 -177
-93 -60 0 -75 4 -112 30 -24 16 -57 48 -74 71 -27 38 -31 51 -32 114 -1 64 2
74 31 113 17 24 51 56 75 72 37 25 53 30 109 30 56 0 72 -4 111 -30z"></path>
</g>
</svg>