<?xml version="1.0" encoding="iso-8859-1"?>
<!-- Generator: Adobe Illustrator 19.0.0, SVG Export Plug-In . SVG Version: 6.00 Build 0)  -->
<svg version="1.1" id="Layer_1" xmlns="http://www.w3.org/2000/svg" xmlns:xlink="http://www.w3.org/1999/xlink" x="0px" y="0px"
	 viewBox="0 0 512.002 512.002" style="enable-background:new 0 0 512.002 512.002;" xml:space="preserve">
<g>
	<g>
		<g>
			<path d="M247.468,264.535v153.6c0,4.71,3.823,8.533,8.533,8.533c4.71,0,8.533-3.823,8.533-8.533v-153.6
				c0-4.71-3.823-8.533-8.533-8.533C251.291,256.002,247.468,259.825,247.468,264.535z"/>
			<path d="M290.134,153.602c0-18.825-15.309-34.133-34.133-34.133s-34.133,15.309-34.133,34.133
				c0,18.825,15.309,34.133,34.133,34.133S290.134,172.427,290.134,153.602z M256.001,170.669c-9.412,0-17.067-7.654-17.067-17.067
				c0-9.412,7.654-17.067,17.067-17.067c9.412,0,17.067,7.654,17.067,17.067C273.068,163.014,265.413,170.669,256.001,170.669z"/>
			<path d="M179.201,392.535c4.71,0,8.533-3.823,8.533-8.533V145.069c0-0.503,0.461-45.585,29.116-83.524
				c7.535,2.816,21.171,6.724,39.151,6.724c18.031,0,31.625-3.925,39.117-6.75c28.552,37.845,29.15,83.055,29.15,83.55v238.933
				c0,4.71,3.823,8.533,8.533,8.533s8.533-3.823,8.533-8.533V145.069c0-2.586-0.512-63.787-45.167-108.433L262.034,2.502
				c-3.337-3.336-8.73-3.336-12.066,0l-34.133,34.133c-44.655,44.646-45.167,105.847-45.167,108.433v238.933
				C170.668,388.713,174.491,392.535,179.201,392.535z M256.001,20.602l26.957,26.957c-6.511,1.843-15.718,3.644-26.957,3.644
				c-11.204,0-20.429-1.792-26.965-3.635L256.001,20.602z"/>
			<path d="M76.801,443.735c-4.71,0-8.533,3.823-8.533,8.533v17.067c0,4.71,3.823,8.533,8.533,8.533s8.533-3.823,8.533-8.533
				v-17.067C85.334,447.558,81.511,443.735,76.801,443.735z"/>
			<path d="M110.934,443.735c-4.71,0-8.533,3.823-8.533,8.533v51.2c0,4.71,3.823,8.533,8.533,8.533c4.71,0,8.533-3.823,8.533-8.533
				v-51.2C119.468,447.558,115.645,443.735,110.934,443.735z"/>
			<path d="M435.201,443.735c-4.71,0-8.533,3.823-8.533,8.533v17.067c0,4.71,3.823,8.533,8.533,8.533s8.533-3.823,8.533-8.533
				v-17.067C443.734,447.558,439.911,443.735,435.201,443.735z"/>
			<path d="M408.961,318.654l-16.427-8.192v-62.993c0-14.114-11.486-25.6-25.6-25.6c-4.71,0-8.533,3.823-8.533,8.533
				s3.823,8.533,8.533,8.533c4.702,0,8.533,3.831,8.533,8.533v68.267c0,3.234,1.826,6.187,4.719,7.637l21.231,10.59
				c13.73,6.767,42.317,20.847,42.317,32.973v42.667h-93.867c-2.244,0-4.42,0.904-6.016,2.483
				c-0.324,0.316-32.657,31.65-87.851,31.65s-87.526-31.334-87.834-31.633c-1.596-1.604-3.772-2.5-6.033-2.5H68.268v-42.667
				c0-12.126,28.587-26.206,42.317-32.973l21.231-10.59c2.893-1.451,4.719-4.403,4.719-7.637v-68.267
				c0-4.702,3.831-8.533,8.533-8.533c4.71,0,8.533-3.823,8.533-8.533s-3.823-8.533-8.533-8.533c-14.114,0-25.6,11.486-25.6,25.6
				v62.993l-16.427,8.192c-20.642,10.172-51.84,25.54-51.84,48.282v51.2c0,4.71,3.823,8.533,8.533,8.533h99.089
				c9.557,8.32,43.563,34.133,97.178,34.133s87.62-25.813,97.178-34.133h99.089c4.71,0,8.533-3.823,8.533-8.533v-51.2
				C460.801,344.194,429.603,328.826,408.961,318.654z"/>
			<path d="M145.068,443.735c-4.71,0-8.533,3.823-8.533,8.533v34.133c0,4.71,3.823,8.533,8.533,8.533s8.533-3.823,8.533-8.533
				v-34.133C153.601,447.558,149.778,443.735,145.068,443.735z"/>
			<path d="M401.068,443.735c-4.71,0-8.533,3.823-8.533,8.533v51.2c0,4.71,3.823,8.533,8.533,8.533s8.533-3.823,8.533-8.533v-51.2
				C409.601,447.558,405.778,443.735,401.068,443.735z"/>
			<path d="M366.934,443.735c-4.71,0-8.533,3.823-8.533,8.533v34.133c0,4.71,3.823,8.533,8.533,8.533s8.533-3.823,8.533-8.533
				v-34.133C375.468,447.558,371.645,443.735,366.934,443.735z"/>
		</g>
	</g>
</g>
<g>
</g>
<g>
</g>
<g>
</g>
<g>
</g>
<g>
</g>
<g>
</g>
<g>
</g>
<g>
</g>
<g>
</g>
<g>
</g>
<g>
</g>
<g>
</g>
<g>
</g>
<g>
</g>
<g>
</g>
</svg>
