<?xml version="1.0" encoding="iso-8859-1"?>
<!-- Generator: Adobe Illustrator 16.0.0, SVG Export Plug-In . SVG Version: 6.00 Build 0)  -->
<!DOCTYPE svg PUBLIC "-//W3C//DTD SVG 1.1//EN" "http://www.w3.org/Graphics/SVG/1.1/DTD/svg11.dtd">
<svg version="1.1" id="Capa_1" xmlns="http://www.w3.org/2000/svg" xmlns:xlink="http://www.w3.org/1999/xlink" x="0px" y="0px"
	 width="516.301px" height="516.301px" viewBox="0 0 516.301 516.301" style="enable-background:new 0 0 516.301 516.301;"
	 xml:space="preserve">
<g>
	<g>
		<path d="M185.6,395.85c-1.9-3.799-7.7-5.699-13.4-3.799l-19.1,11.5v-21c0-5.701-3.8-9.6-9.6-9.6c-5.8,0-9.6,3.799-9.6,9.6v21
			l-19.1-11.5c-3.8-1.9-9.6,0-13.4,3.799c-1.9,3.801-1.9,9.602,3.8,13.4l19.1,11.5l-19.1,11.5c-3.8,1.9-5.7,7.6-3.8,13.4
			c3.8,3.801,9.6,5.699,13.4,1.9l19.1-11.5v21c0,5.699,3.8,9.6,9.6,9.6c5.8,0,9.6-3.801,9.6-9.6v-21l19.1,11.5
			c3.8,1.9,9.6,0,13.4-3.801c1.9-3.799,0-9.6-3.8-11.5l-19.1-11.5l19.1-11.5C185.6,407.25,187.5,401.551,185.6,395.85z"/>
		<path d="M300.3,414.951c-1.899-3.801-7.6-5.701-13.399-3.801l-19.101,11.5v-21c0-5.699-3.8-9.6-9.6-9.6s-9.6,3.799-9.6,9.6v21
			l-19.1-11.5c-3.8-1.9-9.6,0-13.4,3.801c-1.9,3.799-1.9,9.6,3.8,13.398l19.1,11.5l-19.1,11.5c-3.8,1.9-5.7,7.602-3.8,13.4
			c1.9,3.801,7.7,5.701,13.4,3.801l19.1-11.5v21c0,5.699,3.8,9.6,9.6,9.6s9.6-3.801,9.6-9.6v-21l19.101,11.5
			c3.8,1.9,9.6,0,13.399-3.801c1.9-5.699,0-11.5-3.8-13.4l-19.1-11.5l19.1-11.5C300.3,426.451,302.2,420.65,300.3,414.951z"/>
		<path d="M415.101,395.85c-1.9-3.799-7.601-5.699-13.4-3.799l-19.1,11.5v-21c0-5.701-3.801-9.6-9.601-9.6s-9.6,3.799-9.6,9.6v21
			l-19.101-11.5c-3.8-1.9-9.6,0-13.399,3.799c-1.9,3.801-1.9,9.602,3.8,13.4l19.1,11.5l-19.1,11.5c-3.8,1.9-5.7,7.6-3.8,13.4
			c1.899,3.801,7.6,5.699,13.399,3.801l19.101-11.5v21c0,5.699,3.8,9.6,9.6,9.6s9.601-3.801,9.601-9.6v-21l19.1,11.5
			c3.8,1.898,9.6,0,13.4-3.801c1.899-5.699,0-11.5-3.801-13.4l-19.1-11.5l19.1-11.5C415.101,407.25,417,401.551,415.101,395.85z"/>
		<path d="M459.101,170.15c0-57.4-47.801-103.3-105.2-103.3c-21,0-38.2,5.7-55.5,15.3c-24.9-32.5-63.1-53.5-107.1-53.5
			c-74.6,0-133.9,59.3-133.9,133.9c0,1.9,0,5.7,0,7.6c-34.4,15.3-57.4,47.8-57.4,88c0,53.5,42.1,95.599,95.6,95.599h325.1
			c53.5,0,95.6-42.1,95.6-95.599C516.5,217.951,493.5,185.451,459.101,170.15z"/>
	</g>
</g>
<g>
</g>
<g>
</g>
<g>
</g>
<g>
</g>
<g>
</g>
<g>
</g>
<g>
</g>
<g>
</g>
<g>
</g>
<g>
</g>
<g>
</g>
<g>
</g>
<g>
</g>
<g>
</g>
<g>
</g>
</svg>
