<?xml version="1.0" encoding="UTF-8" standalone="no"?>
<!DOCTYPE svg PUBLIC "-//W3C//DTD SVG 1.1//EN" "http://www.w3.org/Graphics/SVG/1.1/DTD/svg11.dtd">
<svg version="1.1" xmlns="http://www.w3.org/2000/svg" xmlns:xlink="http://www.w3.org/1999/xlink" preserveAspectRatio="xMidYMid meet" viewBox="0 0 700 700" width="700" height="700"><defs><path d="M520.3 588.95C522.57 588.93 524.82 588.37 527.03 587.81C530.46 586.94 557.94 580.01 561.38 579.14C562.3 578.91 563.3 578.64 563.94 577.89C564.4 577.36 564.61 576.65 564.8 575.97C576.09 536.78 586.9 497.23 599.39 458.44C600.65 454.16 601.92 449.86 603.99 445.94C606.77 440.7 610.87 436.37 614.91 432.13C618.19 428.68 634.6 411.42 664.13 380.35C648.61 359.48 639.98 347.89 638.26 345.57C637.02 343.9 635.75 342.19 635.12 340.18C633.19 334 637.68 327.92 640.34 322.05C644.98 311.8 644.17 299.91 643.25 288.62C642.85 283.65 640.84 258.8 637.21 214.08C600.19 249.91 579.62 269.82 575.5 273.8C574.07 275.18 467.33 379.71 470.11 384.94C472.18 388.85 443.96 460.17 445.21 464.44C450.01 484.33 452.85 497.94 458.63 517.55C464.39 537.04 470.23 556.49 475.8 576.03C476.03 576.81 476.26 577.64 476.86 578.18C477.39 578.67 478.11 578.87 478.8 579.04C482.33 579.93 510.54 587.04 514.06 587.93C515.98 588.41 517.91 588.9 519.87 588.95C519.96 588.95 520.22 588.95 520.3 588.95Z" id="g2gW6iHWi"></path><path d="M614.44 361.07L581.23 410.95L537.26 393.97L537.26 393.97L614.44 361.07Z" id="a9CsM6T7L"></path><path d="M520.37 547.9L490.11 560.74L490.11 563.7L520.37 550.79L550.64 563.7L550.64 560.74L550.64 560.74L520.37 547.9Z" id="b8vQvy0cS"></path><path d="M179.78 588.95C182.05 588.93 184.3 588.37 186.51 587.81C189.94 586.94 217.42 580.01 220.86 579.14C221.78 578.91 222.78 578.64 223.42 577.89C223.88 577.36 224.09 576.65 224.28 575.97C235.57 536.78 242.38 510.23 254.87 471.44C256.13 467.16 231.18 376.19 217.29 375.9C203.01 375.61 126.02 275.19 124.58 273.8C120.47 269.82 99.9 249.91 62.87 214.07C59.24 258.8 57.23 283.64 56.83 288.61C55.91 299.89 55.09 311.79 59.74 322.04C62.4 327.91 66.89 334 64.96 340.17C64.33 342.18 63.06 343.89 61.82 345.57C60.09 347.89 51.47 359.48 35.95 380.35C65.48 411.42 81.89 428.68 85.17 432.13C89.21 436.39 93.31 440.71 96.09 445.94C98.16 449.85 99.44 454.17 100.69 458.44C105.49 478.33 112.33 497.94 118.11 517.55C123.86 537.04 129.71 556.49 135.28 576.03C135.51 576.81 135.74 577.64 136.34 578.18C136.86 578.67 137.59 578.87 138.28 579.04C141.81 579.93 170.02 587.04 173.54 587.93C175.46 588.41 177.38 588.9 179.35 588.95C179.44 588.95 179.69 588.95 179.78 588.95Z" id="as8XdcOe0"></path><path d="M85.57 361.07L118.77 410.95L162.74 393.97L162.74 393.97L85.57 361.07Z" id="b1LjdtC4D0"></path><path d="M240.64 410.95L196.67 393.97L196.67 393.97C203 390.19 206.96 387.83 208.54 386.89C224.89 377.14 244.96 391.68 240.79 410.25C240.77 410.34 240.72 410.58 240.64 410.95Z" id="aHoKTIoah"></path><path d="M179.78 547.9L149.51 560.74L149.51 563.7L179.78 550.79L210.04 563.7L210.04 560.74L210.04 560.74L179.78 547.9Z" id="a48C5xgzkF"></path><path d="M358.81 591.39C363.63 590.17 402.18 580.44 407 579.22C408.31 578.89 409.7 578.51 410.59 577.47C411.23 576.72 411.53 575.73 411.8 574.77C427.64 519.79 442.82 464.3 460.33 409.87C462.1 403.88 463.88 397.83 466.8 392.33C470.69 384.99 476.44 378.91 482.11 372.95C486.72 368.1 509.74 343.89 551.17 300.31C529.39 271.03 517.29 254.77 514.87 251.52C513.13 249.17 511.35 246.77 510.47 243.95C507.76 235.29 514.06 226.76 517.79 218.52C524.31 204.14 523.16 187.45 521.88 171.61C521.31 164.64 518.49 129.78 513.4 67.02C461.45 117.31 432.59 145.24 426.82 150.83C424.81 152.78 422.73 154.77 420.19 155.86C416.48 157.43 412.3 156.9 408.34 156.35C389.36 153.68 369.7 149.97 350.22 149.58C330.18 149.18 310.21 153.56 290.41 156.35C286.45 156.9 282.26 157.43 278.56 155.86C276.01 154.77 273.94 152.78 271.93 150.83C266.16 145.24 237.29 117.31 185.34 67.02C180.26 129.77 177.43 164.63 176.86 171.61C175.58 187.44 174.43 204.13 180.95 218.51C184.68 226.75 190.98 235.28 188.27 243.94C187.39 246.76 185.61 249.17 183.87 251.51C181.45 254.76 169.35 271.03 147.57 300.3C189 343.88 212.02 368.1 216.63 372.94C222.3 378.91 228.05 384.98 231.94 392.33C234.86 397.82 236.64 403.87 238.41 409.87C245.15 437.78 254.75 465.28 262.86 492.8C270.91 520.14 279.13 547.43 286.95 574.84C287.26 575.94 287.61 577.09 288.43 577.86C289.17 578.55 290.19 578.82 291.16 579.07C296.11 580.31 335.67 590.29 340.62 591.53C343.3 592.21 346.01 592.89 348.77 592.96C348.97 592.97 349.17 592.98 349.37 592.98C353.59 592.44 356.74 591.91 358.81 591.39Z" id="d3YZvgMReI"></path><path d="M217.29 273.26L263.88 343.24L325.57 319.42L325.57 319.42L217.29 273.26Z" id="amAbWFwj"></path><path d="M481.45 273.26L434.86 343.24L373.17 319.42L373.17 319.42L481.45 273.26Z" id="a40xVr6yBs"></path><path d="M349.39 535.39L306.93 553.41L306.93 557.55L349.39 539.45L391.85 557.55L391.85 553.41L391.85 553.41L349.39 535.39Z" id="g1v7kxviL"></path><path d="M463.71 410.95L507.68 393.97L507.68 393.97C497.62 388.97 491.33 385.84 488.81 384.59C473.68 377.07 457.05 391.7 462.57 407.66C462.72 408.1 463.1 409.2 463.71 410.95Z" id="d1bAbcw6c6"></path></defs><g><g><g><g><use xlink:href="#g2gW6iHWi" opacity="1" fill-opacity="0" stroke="#000000" stroke-width="28" stroke-opacity="1"></use></g></g><g><use xlink:href="#a9CsM6T7L" opacity="1" fill="#000000" fill-opacity="1"></use><g><use xlink:href="#a9CsM6T7L" opacity="1" fill-opacity="0" stroke="#000000" stroke-width="19" stroke-opacity="1"></use></g></g><g><use xlink:href="#b8vQvy0cS" opacity="1" fill="#000000" fill-opacity="1"></use><g><use xlink:href="#b8vQvy0cS" opacity="1" fill-opacity="0" stroke="#000000" stroke-width="10" stroke-opacity="1"></use></g></g><g><g><use xlink:href="#as8XdcOe0" opacity="1" fill-opacity="0" stroke="#000000" stroke-width="28" stroke-opacity="1"></use></g></g><g><use xlink:href="#b1LjdtC4D0" opacity="1" fill="#000000" fill-opacity="1"></use><g><use xlink:href="#b1LjdtC4D0" opacity="1" fill-opacity="0" stroke="#000000" stroke-width="19" stroke-opacity="1"></use></g></g><g><use xlink:href="#aHoKTIoah" opacity="1" fill="#222222" fill-opacity="1"></use><g><use xlink:href="#aHoKTIoah" opacity="1" fill-opacity="0" stroke="#000000" stroke-width="19" stroke-opacity="1"></use></g></g><g><use xlink:href="#a48C5xgzkF" opacity="1" fill="#000000" fill-opacity="1"></use><g><use xlink:href="#a48C5xgzkF" opacity="1" fill-opacity="0" stroke="#000000" stroke-width="10" stroke-opacity="1"></use></g></g><g><g><use xlink:href="#d3YZvgMReI" opacity="1" fill-opacity="0" stroke="#000000" stroke-width="28" stroke-opacity="1"></use></g></g><g><use xlink:href="#amAbWFwj" opacity="1" fill="#000000" fill-opacity="1"></use><g><use xlink:href="#amAbWFwj" opacity="1" fill-opacity="0" stroke="#000000" stroke-width="19" stroke-opacity="1"></use></g></g><g><use xlink:href="#a40xVr6yBs" opacity="1" fill="#000000" fill-opacity="1"></use><g><use xlink:href="#a40xVr6yBs" opacity="1" fill-opacity="0" stroke="#000000" stroke-width="19" stroke-opacity="1"></use></g></g><g><use xlink:href="#g1v7kxviL" opacity="1" fill="#000000" fill-opacity="1"></use><g><use xlink:href="#g1v7kxviL" opacity="1" fill-opacity="0" stroke="#000000" stroke-width="10" stroke-opacity="1"></use></g></g><g><use xlink:href="#d1bAbcw6c6" opacity="1" fill="#000000" fill-opacity="1"></use><g><use xlink:href="#d1bAbcw6c6" opacity="1" fill-opacity="0" stroke="#000000" stroke-width="19" stroke-opacity="1"></use></g></g></g></g></svg>