<svg xmlns="http://www.w3.org/2000/svg" viewBox="0 0 63.7 72"><defs><style>.a{fill:#2e73b8;}.b{fill:#5294cf;}.c{fill:#205b99;}.d{fill:#19486f;}</style></defs><title>Database_AmazonDynamoDB</title><polygon class="a" points="63.7 23.5 63.7 15.9 55.7 7.1 42.6 36 55.7 64.8 63.7 56.1 63.7 48.5 61 50.3 61 46.6 63.7 45.3 63.7 37.6 61 37.7 61 34.3 63.7 34.4 63.7 26.9 61 25.5 61 23 63.7 23.5"/><polygon class="b" points="41.4 72 55.7 64.9 55.7 7.1 41.4 0 25.2 36.6 41.4 72"/><polygon class="a" points="21.4 72 41.4 72 41.4 0 21.4 0 11.1 36.6 21.4 72"/><polygon class="c" points="21.4 72 7 64.9 2.5 36.6 7 7.1 21.4 0 21.4 72"/><polygon class="d" points="61 46.6 55.7 49.2 41.4 52.3 31.7 52.3 21.4 52.3 7.4 49.2 7.2 49.2 7 49.2 7 38.3 21.4 39.3 31.7 39.3 41.4 39.3 55.7 38.3 63.7 37.6 61 37.6 61 34.4 63.6 34.4 55.7 33.8 41.4 33.3 31.7 33.3 21.5 33.3 7 33.7 7 22.7 7.2 22.7 21.5 19.3 31.7 19.3 41.4 19.3 55.7 22.7 61 25.5 61 23.7 63.7 23.5 55.7 17.9 41.4 13.3 31.7 13.3 21.5 13.3 7 18.1 7 7.1 0 15.9 0 23.5 2 23.7 2 25.6 0 26.8 0 34.4 2 34.4 2 37.6 0 37.6 0 45.2 2 46.4 2 48.3 0 48.5 0 56.1 7 64.8 7 53.9 21.4 58.3 31.7 58.3 41.4 58.3 55.7 53.9 63.7 48.5 61 48.3 61 46.6"/></svg>