<?xml version="1.0" encoding="UTF-8" standalone="no"?>
<svg
   xmlns:dc="http://purl.org/dc/elements/1.1/"
   xmlns:cc="http://creativecommons.org/ns#"
   xmlns:rdf="http://www.w3.org/1999/02/22-rdf-syntax-ns#"
   xmlns:svg="http://www.w3.org/2000/svg"
   xmlns="http://www.w3.org/2000/svg"
   xmlns:xlink="http://www.w3.org/1999/xlink"
   xmlns:sodipodi="http://sodipodi.sourceforge.net/DTD/sodipodi-0.dtd"
   xmlns:inkscape="http://www.inkscape.org/namespaces/inkscape"
   version="1.1"
   preserveAspectRatio="xMidYMid meet"
   viewBox="0 0 640 640"
   width="640"
   height="640"
   id="svg52"
   sodipodi:docname="lambda.svg"
   inkscape:version="0.92.3 (2405546, 2018-03-11)">
  <metadata
     id="metadata56">
    <rdf:RDF>
      <cc:Work
         rdf:about="">
        <dc:format>image/svg+xml</dc:format>
        <dc:type
           rdf:resource="http://purl.org/dc/dcmitype/StillImage" />
        <dc:title></dc:title>
      </cc:Work>
    </rdf:RDF>
  </metadata>
  <sodipodi:namedview
     pagecolor="#ffffff"
     bordercolor="#666666"
     borderopacity="1"
     objecttolerance="10"
     gridtolerance="10"
     guidetolerance="10"
     inkscape:pageopacity="0"
     inkscape:pageshadow="2"
     inkscape:window-width="2560"
     inkscape:window-height="1377"
     id="namedview54"
     showgrid="false"
     inkscape:zoom="1.8875"
     inkscape:cx="264.37086"
     inkscape:cy="320"
     inkscape:window-x="-8"
     inkscape:window-y="-8"
     inkscape:window-maximized="1"
     inkscape:current-layer="layer3"
     inkscape:pagecheckerboard="false" />
  <defs
     id="defs14">
    <path
       d="M313 42.43C150.94 42.43 19.57 173.8 19.57 335.86C19.57 497.91 150.94 629.29 313 629.29C475.06 629.29 606.43 497.91 606.43 335.86C606.43 173.8 475.06 42.43 313 42.43Z"
       id="b1kCqrwmWb" />
    <path
       d="M606.43 311.75C606.43 311.75 606.43 311.75 606.43 311.75C606.43 326.21 606.43 334.25 606.43 335.86C606.43 335.86 606.43 335.86 606.43 335.86C254.31 335.86 58.69 335.86 19.57 335.86C19.57 335.86 19.57 335.86 19.57 335.86C19.57 321.39 19.57 313.36 19.57 311.75C19.57 311.75 19.57 311.75 19.57 311.75C371.69 311.75 567.31 311.75 606.43 311.75Z"
       id="aEMVUaSd4" />
    <path
       d="M313 18.32C150.94 18.32 19.57 149.69 19.57 311.75C19.57 473.81 150.94 605.18 313 605.18C475.06 605.18 606.43 473.81 606.43 311.75C606.43 149.69 475.06 18.32 313 18.32Z"
       id="c1B1tB9eVZ" />
    <path
       d="M481.17 396.22L430.26 415.7L357.45 225.06L337.2 172.32L327.75 147.44L312.81 108.48L244.44 108.48L216.38 108.48L216.38 172.32L268.84 172.32L287.06 219.95L135.28 490.14L208.57 490.14L316.76 297.48L393.42 498.15L411.65 491.2L453.11 475.39L453.11 475.39L503.93 455.91L503.93 455.91L481.17 396.22Z"
       id="aLHXbKH0N" />
    <mask
       maskUnits="userSpaceOnUse"
       id="mask266">
      <g
         id="g278"
         style="display:inline;fill:#000000">
        <g
           id="g272">
          <rect
             y="11.655629"
             x="-40.794701"
             height="612.45032"
             width="709.40399"
             id="rect268"
             style="display:inline;fill:#ffffff;fill-opacity:1" />
          <use
             height="100%"
             width="100%"
             y="0"
             x="0"
             style="opacity:1;fill:#000000;fill-opacity:1"
             id="use270"
             xlink:href="#aLHXbKH0N" />
        </g>
        <g
           id="g276"
           style="fill:#000000">
          <use
             xlink:href="#aLHXbKH0N"
             id="use274"
             style="opacity:1;fill:#000000;fill-opacity:0;stroke:#000000;stroke-width:1;stroke-opacity:0"
             x="0"
             y="0"
             width="100%"
             height="100%" />
        </g>
      </g>
    </mask>
    <mask
       maskUnits="userSpaceOnUse"
       id="mask280">
      <g
         id="g292"
         style="display:inline;fill:#000000">
        <g
           id="g286">
          <rect
             y="11.655629"
             x="-40.794701"
             height="612.45032"
             width="709.40399"
             id="rect282"
             style="display:inline;fill:#ffffff;fill-opacity:1" />
          <use
             height="100%"
             width="100%"
             y="0"
             x="0"
             style="opacity:1;fill:#000000;fill-opacity:1"
             id="use284"
             xlink:href="#aLHXbKH0N" />
        </g>
        <g
           id="g290"
           style="fill:#000000">
          <use
             xlink:href="#aLHXbKH0N"
             id="use288"
             style="opacity:1;fill:#000000;fill-opacity:0;stroke:#000000;stroke-width:1;stroke-opacity:0"
             x="0"
             y="0"
             width="100%"
             height="100%" />
        </g>
      </g>
    </mask>
  </defs>
  <g
     id="g36"
     mask="url(#mask280)">
    <use
       height="100%"
       width="100%"
       y="0"
       x="0"
       style="opacity:1;fill-opacity:0;stroke:#000000;stroke-width:1;stroke-opacity:0"
       id="use34"
       xlink:href="#c1B1tB9eVZ" />
  </g>
  <g
     inkscape:groupmode="layer"
     id="layer3"
     inkscape:label="Layer 3"
     style="display:inline">
    <use
       height="100%"
       width="100%"
       y="0"
       x="0"
       style="opacity:1;fill:#000000;fill-opacity:1"
       id="use32"
       xlink:href="#c1B1tB9eVZ"
       mask="url(#mask266)" />
  </g>
</svg>
