<?xml version="1.0" encoding="utf-8"?>
<!-- Svg Vector Icons : http://www.onlinewebfonts.com/icon -->
<!DOCTYPE svg PUBLIC "-//W3C//DTD SVG 1.1//EN" "http://www.w3.org/Graphics/SVG/1.1/DTD/svg11.dtd">
<svg version="1.1" xmlns="http://www.w3.org/2000/svg" xmlns:xlink="http://www.w3.org/1999/xlink" x="0px" y="0px" viewBox="0 0 1000 1000" enable-background="new 0 0 1000 1000" xml:space="preserve">
<metadata> Svg Vector Icons : http://www.onlinewebfonts.com/icon </metadata>
<g><g transform="translate(0.000000,511.000000) scale(0.100000,-0.100000)"><path d="M4913.7,4844c-30.7-19.2-1106.3-1087.1-2389-2371.7C-88.6-146.9,103.1,66,103.1-229.3c0-126.6,7.7-172.6,49.9-262.7c151.5-324,542.6-462.1,862.8-301c57.5,26.8,686.4,642.3,2034.3,1988.3L5000,3145.2l1951.8-1949.9C8318.9-169.9,8926.7-766.2,8984.2-794.9c320.2-159.2,713.3-19.2,862.8,302.9c42.2,90.1,49.9,136.1,49.9,262.7c0,295.3,191.7,80.5-2431.2,2711.1c-1380.5,1382.4-2366,2356.4-2402.4,2371.7C4984.7,4888.1,4982.7,4888.1,4913.7,4844z"/><path d="M3086.5,733.2l-1902-1902v-1691.1V-4551l46-53.7l46-53.7H5000h3723.5l46,53.7l46,53.7v1691.1v1691.1L6911.6,735.1c-1045,1045-1905.8,1902-1911.6,1902S4133.4,1780.1,3086.5,733.2z M6888.6-258.1c13.4-21.1-159.1-688.3-187.9-724.8c-15.3-19.2-40.3-3.8-113.1,67.1l-92,90.1L6020-1299.2c-423.7-421.8-481.3-473.6-536.9-473.6c-34.5,0-76.7,15.3-94,34.5c-19.2,17.3-205.1,268.4-416,556c-366.2,502.4-381.5,521.5-421.8,496.6C3924.4-1096,3328.1-1466,3295.5-1466c-51.8,0-136.1,80.5-136.1,132.3c0,21.1,19.2,59.4,44.1,84.3c23,26.9,341.3,237.8,705.6,471.7c490.8,312.5,680.7,423.7,722.8,423.7c70.9,0,59.4,15.3,500.4-590.6c193.7-266.5,356.6-483.2,364.3-483.2c5.8,0,191.7,180.2,410.3,398.8L6303.8-630l-76.7,74.8c-42.2,40.3-76.7,84.3-76.7,97.8c0,11.5,97.8,47.9,216.7,80.5c117,32.6,276.1,76.7,348.9,97.8C6877.1-233.2,6873.2-235.1,6888.6-258.1z M6913.5-2403.6c1.9-720.9-1.9-991.2-17.2-1012.4c-17.3-21.1-92-24.9-360.5-21.1l-337.4,5.8l-5.7,987.4c-1.9,542.6,0,998.9,5.7,1012.3c5.8,19.2,90.1,23,358.5,19.2l350.9-5.7L6913.5-2403.6z M4837-2539.7v-891.6h-354.7h-354.7l-5.7,872.4c-1.9,479.3,0,883.9,5.7,897.3c5.7,19.2,90.1,23,358.5,19.2l350.9-5.7V-2539.7z M5845.6-2137c34.5-19.2,36.4-47.9,36.4-640.4c0-504.3-5.8-625-26.8-642.3c-17.3-15.4-130.4-21.1-358.6-17.3l-333.6,5.8l-5.8,632.7c-3.8,577.1-1.9,634.6,28.8,657.6C5226.2-2112.1,5790-2108.3,5845.6-2137z M3801.7-2904v-527.3l-333.6-5.8c-228.2-3.8-341.3,1.9-358.5,17.3c-36.4,30.7-40.3,993.2-3.8,1029.6c17.3,17.3,115,23,360.5,19.2l335.5-5.7V-2904z"/></g></g>
</svg>